<svg xmlns="http://www.w3.org/2000/svg" viewBox="0 0 209.52 86.4"><defs><style>.cls-1,.cls-2{fill:#fff;}.cls-2{isolation:isolate;font-size:28.8px;font-family:MyriadPro-Bold, Myriad Pro;font-weight:700;}.cls-3{letter-spacing:0em;}</style></defs><title>Asset 1</title><g id="Layer_2" data-name="Layer 2"><g id="Layer_1-2" data-name="Layer 1"><path class="cls-1" d="M108.76,0c-24.1,0-43.7,19.4-43.7,43.2s19.6,43.2,43.7,43.2,43.7-19.4,43.7-43.2S132.86,0,108.76,0Zm0,83.1a39.9,39.9,0,1,1,40.3-39.9C149.06,65.2,131,83.1,108.76,83.1Z"/><path class="cls-1" d="M137.66,59.7h-21.6a1.8,1.8,0,1,1,0-3.6h18.5l-12.1-20.6-13.9,23.2a2.14,2.14,0,0,1-1.5.9H79.46a1.77,1.77,0,0,1-1.8-1.7,2.92,2.92,0,0,1,.2-.9l22.5-38.2a1.86,1.86,0,0,1,1.5-.9h0a1.65,1.65,0,0,1,1.5.9l9.4,16.4a1.72,1.72,0,0,1-.9,2.3,1.86,1.86,0,0,1-2.1-.5l-7.9-13.8-19.4,33h23.6l14.8-24.9a2.14,2.14,0,0,1,1.5-.9h0a1.65,1.65,0,0,1,1.5.9L139,57.1a1.78,1.78,0,0,1-.6,2.4,1.17,1.17,0,0,1-.7.2Z"/><text class="cls-2" transform="translate(0 53.1)">Bl<tspan class="cls-3" x="25.32" y="0">o</tspan><tspan x="42.02" y="0">g</tspan></text><text class="cls-2" transform="translate(157.71 53.1)">Mtn</text></g></g></svg>